<svg xmlns="http://www.w3.org/2000/svg" viewBox="0 0 64 64" role="img" aria-label="Kulturko favicon">
  <defs>
    <linearGradient id="bg" x1="8" y1="8" x2="56" y2="56" gradientUnits="userSpaceOnUse">
      <stop offset="0%" stop-color="#2aa36e"/>
      <stop offset="100%" stop-color="#176544"/>
    </linearGradient>
  </defs>
  <rect width="64" height="64" rx="14" fill="#f6f9fb"/>
  <path d="M32 8c6.4 3.8 13.7 4.5 20 6.6v13.8c0 13.1-7.1 21.2-20 27.6-12.9-6.4-20-14.5-20-27.6V14.6C18.3 12.5 25.6 11.8 32 8Z" fill="url(#bg)"/>
  <path d="M32 10.7c5.6 3.2 12.1 3.8 17.8 5.6v12.1c0 11.6-6.3 18.8-17.8 24.6-11.5-5.8-17.8-13-17.8-24.6V16.3c5.7-1.8 12.2-2.4 17.8-5.6Z" fill="none" stroke="#ffffff" stroke-opacity=".22" stroke-width="1.4"/>
  <text x="32" y="33" text-anchor="middle" dominant-baseline="middle" font-size="23" font-weight="800" font-family="'DM Sans', system-ui, sans-serif" fill="#f6bd2d">K</text>
</svg>
